# xmcd
#
# Track frame offsets:
# 150
# 15549
# 29012
# 44660
# 59777
# 74399
# 88141
# 105995
# 123315
# 139194
# 154892
# 172093
# 186267
# 201567
# 218450
#
# Disc length: 3074 seconds
#
#
# Revision: 3
# Processed by: cddbd v1.5.2PL0 Copyright (c) Steve Scherf et al.
# Submitted via: FreeRIP 2.951 
#
DISCID=e60c000f
DTITLE=Daniel - Amor Absoluto
DYEAR=2006
DGENRE=Romantico
TTITLE0=A Primeira Letra
TTITLE1=Quem Diria Hein?
TTITLE2=Quando Acaba Uma Paixão
TTITLE3=É de Cair o Queixo
TTITLE4=Descarados Sem Juizo
TTITLE5=Quebradeira
TTITLE6=Esperando Neném
TTITLE7=Inexplicável
TTITLE8=Amor Absoluto
TTITLE9=Caipirinha
TTITLE10=Homem Maduro
TTITLE11=Melhor Pingar Que Secar
TTITLE12=Tem Alguém em Seu Lugar
TTITLE13=Que Qui Tem
TTITLE14=Pago Pra Ver
EXTD=
EXTT0=
EXTT1=
EXTT2=
EXTT3=
EXTT4=
EXTT5=
EXTT6=
EXTT7=
EXTT8=
EXTT9=
EXTT10=
EXTT11=
EXTT12=
EXTT13=
EXTT14=
PLAYORDER=
